<svg width="11" height="13" viewBox="0 0 11 13" fill="none" xmlns="http://www.w3.org/2000/svg">
<path d="M9.76562 1.625H7.53125V1.21875C7.53125 0.546736 6.98451 0 6.3125 0H4.6875C4.01549 0 3.46875 0.546736 3.46875 1.21875V1.625H1.23438C0.674359 1.625 0.21875 2.08061 0.21875 2.64062V4.0625C0.21875 4.28685 0.400648 4.46875 0.625 4.46875H0.847016L1.19799 11.8392C1.22899 12.4901 1.76372 13 2.41534 13H8.58466C9.23631 13 9.77103 12.4901 9.80201 11.8392L10.153 4.46875H10.375C10.5994 4.46875 10.7812 4.28685 10.7812 4.0625V2.64062C10.7812 2.08061 10.3256 1.625 9.76562 1.625ZM4.28125 1.21875C4.28125 0.994754 4.4635 0.8125 4.6875 0.8125H6.3125C6.5365 0.8125 6.71875 0.994754 6.71875 1.21875V1.625H4.28125V1.21875ZM1.03125 2.64062C1.03125 2.52863 1.12238 2.4375 1.23438 2.4375H9.76562C9.87762 2.4375 9.96875 2.52863 9.96875 2.64062V3.65625C9.84355 3.65625 1.55006 3.65625 1.03125 3.65625V2.64062ZM8.99042 11.8006C8.98009 12.0175 8.80185 12.1875 8.58466 12.1875H2.41534C2.19813 12.1875 2.01988 12.0175 2.00958 11.8006L1.66043 4.46875H9.33957L8.99042 11.8006Z" fill="black"/>
<path d="M5.5 11.375C5.72435 11.375 5.90625 11.1931 5.90625 10.9688V5.6875C5.90625 5.46315 5.72435 5.28125 5.5 5.28125C5.27565 5.28125 5.09375 5.46315 5.09375 5.6875V10.9688C5.09375 11.1931 5.27562 11.375 5.5 11.375Z" fill="black"/>
<path d="M7.53125 11.375C7.7556 11.375 7.9375 11.1931 7.9375 10.9688V5.6875C7.9375 5.46315 7.7556 5.28125 7.53125 5.28125C7.3069 5.28125 7.125 5.46315 7.125 5.6875V10.9688C7.125 11.1931 7.30687 11.375 7.53125 11.375Z" fill="black"/>
<path d="M3.46875 11.375C3.6931 11.375 3.875 11.1931 3.875 10.9688V5.6875C3.875 5.46315 3.6931 5.28125 3.46875 5.28125C3.2444 5.28125 3.0625 5.46315 3.0625 5.6875V10.9688C3.0625 11.1931 3.24437 11.375 3.46875 11.375Z" fill="black"/>
</svg>
