<svg width="36" height="14" viewBox="0 0 36 14" fill="none" xmlns="http://www.w3.org/2000/svg">
<path d="M0.779229 11.152L1.52517 10.5917C1.14221 10.7218 1.14221 10.7218 0.779229 11.152ZM30.5034 5.52262C30.4065 5.5304 30.314 5.56631 30.2372 5.62593C30.1605 5.68556 30.1027 5.76632 30.0711 5.85832C30.0394 5.95032 30.0352 6.04957 30.0591 6.1439C30.0829 6.23824 30.1337 6.32357 30.2052 6.38944C30.2767 6.45531 30.3658 6.49886 30.4617 6.51477C30.5576 6.53067 30.656 6.51823 30.7449 6.47896C30.8338 6.4397 30.9093 6.37533 30.9622 6.29372C31.0152 6.21212 31.0432 6.11683 31.0428 6.01952C31.0403 5.95133 31.0242 5.88432 30.9957 5.82237C30.9671 5.76041 30.9266 5.70472 30.8765 5.65853C30.8263 5.61233 30.7675 5.57654 30.7035 5.55321C30.6394 5.52989 30.5714 5.51949 30.5034 5.52262ZM30.5034 6.43972C30.4234 6.43073 30.3477 6.39891 30.2853 6.34806C30.2229 6.2972 30.1764 6.22945 30.1514 6.15288C30.1264 6.0763 30.1239 5.99414 30.1441 5.91617C30.1644 5.83821 30.2067 5.76772 30.2659 5.71313C30.325 5.65853 30.3986 5.62212 30.4779 5.60823C30.5571 5.59435 30.6387 5.60357 30.7128 5.63481C30.787 5.66604 30.8506 5.71797 30.8961 5.7844C30.9417 5.85084 30.9672 5.92898 30.9696 6.00952C30.9688 6.06894 30.9559 6.12758 30.9318 6.18186C30.9076 6.23613 30.8726 6.28489 30.829 6.32516C30.7853 6.36543 30.7339 6.39636 30.678 6.41606C30.622 6.43576 30.5626 6.44381 30.5034 6.43972ZM30.5034 5.52262C30.4065 5.5304 30.314 5.56631 30.2372 5.62593C30.1605 5.68556 30.1027 5.76632 30.0711 5.85832C30.0394 5.95032 30.0352 6.04957 30.0591 6.1439C30.0829 6.23824 30.1337 6.32357 30.2052 6.38944C30.2767 6.45531 30.3658 6.49886 30.4617 6.51477C30.5576 6.53067 30.656 6.51823 30.7449 6.47896C30.8338 6.4397 30.9093 6.37533 30.9622 6.29372C31.0152 6.21212 31.0432 6.11683 31.0428 6.01952C31.0403 5.95133 31.0242 5.88432 30.9957 5.82237C30.9671 5.76041 30.9266 5.70472 30.8765 5.65853C30.8263 5.61233 30.7675 5.57654 30.7035 5.55321C30.6394 5.52989 30.5714 5.51949 30.5034 5.52262ZM30.5034 6.43972C30.4234 6.43073 30.3477 6.39891 30.2853 6.34806C30.2229 6.2972 30.1764 6.22945 30.1514 6.15288C30.1264 6.0763 30.1239 5.99414 30.1441 5.91617C30.1644 5.83821 30.2067 5.76772 30.2659 5.71313C30.325 5.65853 30.3986 5.62212 30.4779 5.60823C30.5571 5.59435 30.6387 5.60357 30.7128 5.63481C30.787 5.66604 30.8506 5.71797 30.8961 5.7844C30.9417 5.85084 30.9672 5.92898 30.9696 6.00952C30.9688 6.06894 30.9559 6.12758 30.9318 6.18186C30.9076 6.23613 30.8726 6.28489 30.829 6.32516C30.7853 6.36543 30.7339 6.39636 30.678 6.41606C30.622 6.43576 30.5626 6.44381 30.5034 6.43972ZM30.5034 5.52262C30.4065 5.5304 30.314 5.56631 30.2372 5.62593C30.1605 5.68556 30.1027 5.76632 30.0711 5.85832C30.0394 5.95032 30.0352 6.04957 30.0591 6.1439C30.0829 6.23824 30.1337 6.32357 30.2052 6.38944C30.2767 6.45531 30.3658 6.49886 30.4617 6.51477C30.5576 6.53067 30.656 6.51823 30.7449 6.47896C30.8338 6.4397 30.9093 6.37533 30.9622 6.29372C31.0152 6.21212 31.0432 6.11683 31.0428 6.01952C31.0403 5.95133 31.0242 5.88432 30.9957 5.82237C30.9671 5.76041 30.9266 5.70472 30.8765 5.65853C30.8263 5.61233 30.7675 5.57654 30.7035 5.55321C30.6394 5.52989 30.5714 5.51949 30.5034 5.52262ZM30.5034 6.43972C30.4234 6.43073 30.3477 6.39891 30.2853 6.34806C30.2229 6.2972 30.1764 6.22945 30.1514 6.15288C30.1264 6.0763 30.1239 5.99414 30.1441 5.91617C30.1644 5.83821 30.2067 5.76772 30.2659 5.71313C30.325 5.65853 30.3986 5.62212 30.4779 5.60823C30.5571 5.59435 30.6387 5.60357 30.7128 5.63481C30.787 5.66604 30.8506 5.71797 30.8961 5.7844C30.9417 5.85084 30.9672 5.92898 30.9696 6.00952C30.9688 6.06894 30.9559 6.12758 30.9318 6.18186C30.9076 6.23613 30.8726 6.28489 30.829 6.32516C30.7853 6.36543 30.7339 6.39636 30.678 6.41606C30.622 6.43576 30.5626 6.44381 30.5034 6.43972ZM30.5034 5.52262C30.4065 5.5304 30.314 5.56631 30.2372 5.62593C30.1605 5.68556 30.1027 5.76632 30.0711 5.85832C30.0394 5.95032 30.0352 6.04957 30.0591 6.1439C30.0829 6.23824 30.1337 6.32357 30.2052 6.38944C30.2767 6.45531 30.3658 6.49886 30.4617 6.51477C30.5576 6.53067 30.656 6.51823 30.7449 6.47896C30.8338 6.4397 30.9093 6.37533 30.9622 6.29372C31.0152 6.21212 31.0432 6.11683 31.0428 6.01952C31.0403 5.95133 31.0242 5.88432 30.9957 5.82237C30.9671 5.76041 30.9266 5.70472 30.8765 5.65853C30.8263 5.61233 30.7675 5.57654 30.7035 5.55321C30.6394 5.52989 30.5714 5.51949 30.5034 5.52262ZM30.5034 6.43972C30.4234 6.43073 30.3477 6.39891 30.2853 6.34806C30.2229 6.2972 30.1764 6.22945 30.1514 6.15288C30.1264 6.0763 30.1239 5.99414 30.1441 5.91617C30.1644 5.83821 30.2067 5.76772 30.2659 5.71313C30.325 5.65853 30.3986 5.62212 30.4779 5.60823C30.5571 5.59435 30.6387 5.60357 30.7128 5.63481C30.787 5.66604 30.8506 5.71797 30.8961 5.7844C30.9417 5.85084 30.9672 5.92898 30.9696 6.00952C30.9688 6.06894 30.9559 6.12758 30.9318 6.18186C30.9076 6.23613 30.8726 6.28489 30.829 6.32516C30.7853 6.36543 30.7339 6.39636 30.678 6.41606C30.622 6.43576 30.5626 6.44381 30.5034 6.43972ZM30.5034 5.52262C30.4065 5.5304 30.314 5.56631 30.2372 5.62593C30.1605 5.68556 30.1027 5.76632 30.0711 5.85832C30.0394 5.95032 30.0352 6.04957 30.0591 6.1439C30.0829 6.23824 30.1337 6.32357 30.2052 6.38944C30.2767 6.45531 30.3658 6.49886 30.4617 6.51477C30.5576 6.53067 30.656 6.51823 30.7449 6.47896C30.8338 6.4397 30.9093 6.37533 30.9622 6.29372C31.0152 6.21212 31.0432 6.11683 31.0428 6.01952C31.0403 5.95133 31.0242 5.88432 30.9957 5.82237C30.9671 5.76041 30.9266 5.70472 30.8765 5.65853C30.8263 5.61233 30.7675 5.57654 30.7035 5.55321C30.6394 5.52989 30.5714 5.51949 30.5034 5.52262ZM30.5034 6.43972C30.4234 6.43073 30.3477 6.39891 30.2853 6.34806C30.2229 6.2972 30.1764 6.22945 30.1514 6.15288C30.1264 6.0763 30.1239 5.99414 30.1441 5.91617C30.1644 5.83821 30.2067 5.76772 30.2659 5.71313C30.325 5.65853 30.3986 5.62212 30.4779 5.60823C30.5571 5.59435 30.6387 5.60357 30.7128 5.63481C30.787 5.66604 30.8506 5.71797 30.8961 5.7844C30.9417 5.85084 30.9672 5.92898 30.9696 6.00952C30.9688 6.06894 30.9559 6.12758 30.9318 6.18186C30.9076 6.23613 30.8726 6.28489 30.829 6.32516C30.7853 6.36543 30.7339 6.39636 30.678 6.41606C30.622 6.43576 30.5626 6.44381 30.5034 6.43972ZM30.5034 5.52262C30.4065 5.5304 30.314 5.56631 30.2372 5.62593C30.1605 5.68556 30.1027 5.76632 30.0711 5.85832C30.0394 5.95032 30.0352 6.04957 30.0591 6.1439C30.0829 6.23824 30.1337 6.32357 30.2052 6.38944C30.2767 6.45531 30.3658 6.49886 30.4617 6.51477C30.5576 6.53067 30.656 6.51823 30.7449 6.47896C30.8338 6.4397 30.9093 6.37533 30.9622 6.29372C31.0152 6.21212 31.0432 6.11683 31.0428 6.01952C31.0403 5.95133 31.0242 5.88432 30.9957 5.82237C30.9671 5.76041 30.9266 5.70472 30.8765 5.65853C30.8263 5.61233 30.7675 5.57654 30.7035 5.55321C30.6394 5.52989 30.5714 5.51949 30.5034 5.52262ZM30.5034 6.43972C30.4234 6.43073 30.3477 6.39891 30.2853 6.34806C30.2229 6.2972 30.1764 6.22945 30.1514 6.15288C30.1264 6.0763 30.1239 5.99414 30.1441 5.91617C30.1644 5.83821 30.2067 5.76772 30.2659 5.71313C30.325 5.65853 30.3986 5.62212 30.4779 5.60823C30.5571 5.59435 30.6387 5.60357 30.7128 5.63481C30.787 5.66604 30.8506 5.71797 30.8961 5.7844C30.9417 5.85084 30.9672 5.92898 30.9696 6.00952C30.9688 6.06894 30.9559 6.12758 30.9318 6.18186C30.9076 6.23613 30.8726 6.28489 30.829 6.32516C30.7853 6.36543 30.7339 6.39636 30.678 6.41606C30.622 6.43576 30.5626 6.44381 30.5034 6.43972ZM35.7016 7.6603C35.4885 7.68031 35.2787 7.70366 35.0656 7.73367C34.8524 7.76369 34.7325 7.78703 34.566 7.81371C34.3995 7.84039 34.1664 7.85706 33.9733 7.90042C33.7104 7.94259 33.4728 8.08179 33.3073 8.2906C33.2433 8.35284 33.1717 8.40664 33.0942 8.45068C32.9843 8.53405 32.881 8.62409 32.7611 8.70413L32.6346 8.74749C32.7478 8.59408 32.8477 8.47069 32.931 8.34063C33.0098 8.21835 33.1144 8.11478 33.2374 8.03715C33.5256 7.84961 33.7965 7.63642 34.0466 7.40018C34.2213 7.24168 34.4314 7.12734 34.6593 7.06669C34.7433 7.03938 34.8256 7.00708 34.9057 6.96998C35.0656 6.89994 35.2387 6.83658 35.3852 6.75654C35.4497 6.71157 35.5042 6.65365 35.5451 6.58646C35.4718 6.36636 35.272 6.27298 35.0822 6.16626C34.8924 6.05954 34.7159 5.96283 34.5361 5.85612L34.0466 5.55264C33.7032 5.34071 33.3422 5.15884 32.9676 5.00905C32.6513 4.88232 32.3449 4.74225 32.0319 4.60886C31.7854 4.50547 31.539 4.4121 31.2992 4.30204C31.0595 4.19199 30.9096 4.09195 30.7065 3.99857C30.5034 3.90519 30.2669 3.83849 30.0405 3.73844C29.5993 3.56116 29.1451 3.41844 28.6818 3.31157C28.3988 3.2282 28.0991 3.19485 27.806 3.13816C27.5796 3.0948 27.3565 3.03478 27.14 3.00143C26.7637 2.9414 26.3841 2.88471 26.0045 2.85136C25.6248 2.81801 25.3384 2.83135 25.0054 2.82134L24.1729 2.79133C23.8166 2.79133 23.4603 2.76798 23.1073 2.76465C22.8842 2.76465 22.6644 2.76465 22.4413 2.78799L21.5122 2.84802C21.0293 2.88137 20.5398 2.89805 20.057 2.94807C19.7439 2.98142 19.4376 3.05145 19.1279 3.11481C18.7083 3.19819 18.292 3.28489 17.8758 3.37827C17.6693 3.42163 17.4662 3.48499 17.2597 3.53168C16.97 3.59838 16.6803 3.6484 16.3906 3.7151C16.1008 3.7818 15.7745 3.8685 15.4681 3.94854L14.4691 4.21534C14.2693 4.2687 14.0762 4.32873 13.8797 4.38542L13.0405 4.6222C12.7075 4.71224 12.3745 4.78894 12.0415 4.87899C11.562 5.01238 11.0858 5.14912 10.6096 5.28918C10.2299 5.39923 9.85698 5.5293 9.47402 5.62267C8.99449 5.74606 8.5083 5.85279 8.02212 5.95617C7.73906 6.02287 7.44935 6.07622 7.16629 6.14626C6.99313 6.18628 6.83329 6.2463 6.65679 6.29633C6.358 6.38057 6.05093 6.43201 5.74102 6.44973C5.60449 6.44973 5.46796 6.46974 5.33476 6.49642C5.11444 6.53518 4.88906 6.53518 4.66875 6.49642C4.58011 6.49029 4.49213 6.47691 4.40567 6.4564C4.43564 6.43639 4.45895 6.39637 4.49225 6.39304C4.60215 6.39304 4.71537 6.37303 4.82526 6.36636H5.0184C4.94181 6.28632 4.8852 6.22629 4.82526 6.1696C4.54246 5.88077 4.30248 5.55284 4.11263 5.1958C4.00481 5.02068 3.88462 4.85351 3.75298 4.69557C3.60761 4.50279 3.45198 4.31799 3.28677 4.14197C3.08031 3.9252 2.86052 3.7151 2.63741 3.51167C2.4143 3.30824 2.25112 3.17818 2.05132 3.01477C1.88757 2.88007 1.71266 2.75958 1.5285 2.6546C1.16885 2.46117 0.799215 2.28109 0.426248 2.11434C0.287547 2.06638 0.14492 2.03067 0 2.00762C0.00152544 2.01533 0.00152544 2.02326 0 2.03097L0.592752 2.48452C0.891682 2.73337 1.165 3.01155 1.40862 3.31491C1.50516 3.46383 1.61675 3.6024 1.74162 3.72844C1.7616 3.64173 1.80156 3.7051 1.85817 3.72844C2.14904 3.88295 2.4216 4.06977 2.67071 4.28537C2.85387 4.46212 3.06699 4.61886 3.24681 4.78561C3.42664 4.95235 3.64975 5.20914 3.83623 5.43258C4.048 5.68242 4.24695 5.94288 4.43232 6.21295C4.2092 5.95616 3.99275 5.68937 3.7663 5.44592C3.52057 5.20897 3.26151 4.98628 2.9904 4.77894C2.72066 4.5655 2.43095 4.37541 2.14789 4.17532L2.11792 4.19866C2.13475 4.25834 2.15939 4.31553 2.19118 4.36874C2.34468 4.55717 2.45801 4.77508 2.52419 5.00905C2.53949 5.08 2.55838 5.15013 2.5808 5.21915C2.87052 5.21915 4.12262 6.21963 4.14593 6.48308C3.88285 6.26965 3.64309 6.06288 3.39001 5.86946C3.13692 5.67603 2.87385 5.50595 2.61743 5.3292C2.603 5.37395 2.60596 5.4225 2.62572 5.46515C2.64547 5.50781 2.68056 5.54143 2.72399 5.55931C3.03005 5.69952 3.31125 5.88876 3.55651 6.11958L3.88951 6.40971C3.92117 6.43199 3.94925 6.45898 3.97276 6.48975C3.97894 6.52393 3.97894 6.55895 3.97276 6.59314L2.66405 5.67603C2.66405 5.8261 2.70401 5.89947 2.8572 5.95283C3.17921 6.07087 3.46498 6.27086 3.68638 6.5331C3.68638 6.5331 3.68638 6.56979 3.68638 6.59647C3.41471 6.35614 3.10232 6.1664 2.76395 6.0362C2.78726 6.13625 2.81057 6.22629 2.83388 6.31633C3.12784 6.40957 3.40457 6.55039 3.65308 6.7332L2.8472 6.39971C2.8472 6.43639 2.8472 6.48642 2.87052 6.54978L3.39333 6.65316C3.37002 6.65316 3.34671 6.69651 3.32673 6.69318C3.19686 6.69318 3.07032 6.6665 2.94045 6.65316L2.86718 6.63649C2.86718 6.68985 2.86718 6.73653 2.86718 6.79656L3.43329 6.69652C3.43329 6.69652 3.39999 6.7332 3.38001 6.73987C3.23649 6.77929 3.09084 6.81046 2.94377 6.83325C2.84054 6.83325 2.82056 6.88327 2.84054 6.97665L3.28344 6.84325C3.3567 6.82324 3.42996 6.80323 3.50323 6.78989C3.52321 6.78989 3.54652 6.78989 3.56983 6.81324C3.59314 6.83658 3.54985 6.86326 3.53319 6.86659C3.34671 6.92329 3.16356 6.98665 2.97041 7.02667C2.77727 7.06669 2.7806 7.08337 2.7806 7.24011L3.65641 6.90661C3.70636 7.01 3.62311 7.01333 3.57648 7.03001C3.44661 7.08336 3.30675 7.12005 3.17688 7.17341C3.047 7.22677 2.91047 7.29346 2.78393 7.36016C2.75434 7.37805 2.73284 7.40675 2.72399 7.4402C2.70401 7.50357 2.69402 7.57026 2.67737 7.64363L3.79627 7.01667L3.82624 7.05669C3.80517 7.08331 3.78052 7.10689 3.75298 7.12672C3.61978 7.20676 3.48324 7.28013 3.35004 7.35683C3.17936 7.47259 3.00013 7.57515 2.8139 7.66364C2.61077 7.74035 2.61076 7.90376 2.55748 8.08384C2.69735 7.97713 2.81723 7.87708 2.94377 7.79037C3.23681 7.58694 3.53319 7.38351 3.82957 7.18675C3.85288 7.18675 3.89617 7.18675 3.9328 7.18675C3.91981 7.21533 3.90175 7.24131 3.87952 7.26345C3.60645 7.46688 3.33006 7.66364 3.05699 7.86374C2.87717 7.9938 2.69734 8.12053 2.52418 8.26059C2.47374 8.31681 2.43117 8.37964 2.39764 8.44735L2.42095 8.46736C2.46424 8.42734 2.50753 8.38398 2.55082 8.3473C2.75612 8.16905 2.97932 8.01259 3.21683 7.88042C3.39306 7.77253 3.56214 7.65333 3.723 7.52358C3.83729 7.43444 3.95745 7.3531 4.08265 7.28013C4.06881 7.30822 4.05085 7.33408 4.02937 7.35683C3.84288 7.52692 3.65307 7.69033 3.46659 7.85707C3.2801 8.02382 3.20351 8.10386 3.06698 8.22391C2.93045 8.34397 2.73397 8.52405 2.54749 8.66412C2.45425 8.74083 2.34768 8.79752 2.25444 8.86755C2.2107 8.90509 2.17742 8.95335 2.15787 9.00762C2.55642 8.77929 2.92931 8.50872 3.27011 8.20057C3.60312 7.88708 3.93613 7.56693 4.26913 7.25012C4.33574 7.32015 4.26913 7.35683 4.24582 7.39018C4.08265 7.57027 3.91282 7.74368 3.74964 7.92043C3.58264 8.1149 3.40593 8.30078 3.22017 8.47736C3.03391 8.63486 2.83818 8.78076 2.63407 8.91424C2.46757 9.02763 2.28442 9.12434 2.11791 9.24773C2.06039 9.28873 2.01169 9.3409 1.97472 9.40114C1.89805 9.51997 1.82909 9.64362 1.76826 9.77131C2.02159 9.62875 2.25457 9.45264 2.46091 9.24773C2.68735 9.06431 2.91047 8.87755 3.12692 8.68413C3.34337 8.4907 3.56316 8.30061 3.76962 8.09718C3.97608 7.89375 4.17256 7.67365 4.38901 7.46688C4.3831 7.49177 4.37296 7.51546 4.35904 7.53692C4.04269 7.91043 3.73299 8.28727 3.40331 8.64744C3.23661 8.8215 3.05742 8.98312 2.86718 9.13101C2.62741 9.3311 2.38765 9.5312 2.13456 9.71795C2.00989 9.79824 1.87969 9.86956 1.74494 9.93139C1.70171 9.9508 1.66311 9.97922 1.63172 10.0148C1.5185 10.1815 1.41527 10.3483 1.29872 10.535C2.14788 9.84802 3.05033 9.23439 3.70635 8.37065L3.74631 8.404C3.636 8.59316 3.50413 8.76886 3.35337 8.92758C3.21017 9.10099 3.05366 9.26107 2.89382 9.42782C2.73398 9.59456 2.56081 9.73463 2.39431 9.90804C2.76383 9.69498 3.0939 9.4197 3.37002 9.09432C3.37002 9.09432 3.37002 9.12434 3.37002 9.13434C3.17293 9.39381 2.96287 9.64314 2.74064 9.88136C2.55905 10.0363 2.36652 10.1778 2.16453 10.3049C1.9947 10.435 1.83153 10.5717 1.66503 10.7051C1.39529 10.9152 1.13222 11.1286 0.855821 11.3287C0.749579 11.3972 0.638252 11.4574 0.522816 11.5088L0.492844 11.5321C0.494134 11.5421 0.494134 11.5522 0.492844 11.5622C0.582757 11.5288 0.675998 11.5021 0.75925 11.4621C0.842503 11.4221 0.972374 11.3454 1.09226 11.2954C1.21214 11.2453 1.42526 11.1787 1.5851 11.1053C1.76596 11.0252 1.93879 10.928 2.10126 10.8151C2.57443 10.4435 2.97134 9.98376 3.27012 9.46117C3.43329 9.19437 3.56982 8.91091 3.71967 8.63744C3.86953 8.36398 4.02271 8.06717 4.20586 7.80038C4.40008 7.52926 4.65723 7.30951 4.95513 7.16008L5.01174 7.11005C4.9185 7.11005 4.84857 7.11005 4.77864 7.11005C4.55593 7.10476 4.33363 7.08807 4.11262 7.06002C4.00396 7.02822 3.90381 6.97237 3.81958 6.89661C3.78628 6.87327 3.78628 6.80657 3.77296 6.75988C3.83947 6.81666 3.91207 6.86587 3.98941 6.90662C4.10733 6.9498 4.23056 6.97673 4.35572 6.98666C4.59548 6.98666 4.83192 6.98666 5.07168 6.98666C5.43799 6.98666 5.80097 6.96665 6.16727 6.98666C6.53358 7.00667 6.83328 6.98666 7.18627 7.02334C7.40017 7.04886 7.61174 7.09123 7.81898 7.15007C8.06541 7.2101 8.30517 7.28013 8.54494 7.36017C8.7847 7.44021 9.07441 7.56027 9.34748 7.64697C9.53063 7.707 9.72711 7.73702 9.9136 7.79037C10.1001 7.84373 10.3731 7.93044 10.5996 8.00381L11.5986 8.3373C12.0321 8.46591 12.4516 8.63797 12.8507 8.85087C13.1138 8.99761 13.4068 9.09433 13.6799 9.22105C14.0721 9.35492 14.4539 9.51766 14.8221 9.70795C14.9758 9.79192 15.1376 9.86008 15.305 9.91138C15.5447 10.0014 15.7878 10.0815 16.0276 10.1648C16.2674 10.2482 16.4771 10.3349 16.6936 10.4049C16.91 10.475 17.0666 10.4917 17.253 10.5383C17.5228 10.605 17.7892 10.6784 18.0589 10.7418C18.2521 10.7851 18.4485 10.8218 18.6417 10.8585C18.8348 10.8952 19.0713 10.9485 19.2877 10.9852C19.5708 11.0319 19.8572 11.0719 20.1402 11.1153C20.2901 11.1386 20.4432 11.1686 20.5964 11.1887C20.7496 11.2087 20.8362 11.2153 20.9561 11.2253L21.6221 11.2587L22.5811 11.302L23.6235 11.3321C23.8466 11.3321 24.073 11.3321 24.2895 11.3321C24.3563 11.3463 24.4212 11.3687 24.4826 11.3988L24.3394 11.4921C24.6724 11.3854 24.9022 11.1053 25.2885 11.122C25.2877 11.1364 25.2877 11.1509 25.2885 11.1653C25.445 11.0953 25.485 11.1119 25.5682 11.2587C25.5778 11.2714 25.5905 11.2815 25.6051 11.2879C25.6196 11.2943 25.6356 11.2969 25.6515 11.2954C26.0344 11.2654 26.4174 11.232 26.797 11.192C27.1011 11.1664 27.4029 11.1174 27.6995 11.0453C28.0524 10.9585 28.4187 10.9119 28.7751 10.8352C29.0381 10.7785 29.2946 10.7084 29.5543 10.6384C29.7441 10.5884 29.9373 10.535 30.1237 10.4716C30.3668 10.3849 30.6033 10.2882 30.843 10.1982C30.9729 10.1515 31.1061 10.1115 31.2327 10.0581C31.4225 9.98141 31.6056 9.89804 31.7921 9.818L32.4581 9.5412C32.6912 9.44449 32.9243 9.34111 33.1574 9.24106C33.3905 9.14102 33.6403 9.04097 33.8734 8.92758C34.0565 8.84087 34.2297 8.73416 34.4095 8.64078C34.5894 8.5474 34.8158 8.44068 35.0189 8.34064C35.2221 8.24059 35.5051 8.10719 35.7416 7.97713C35.7702 7.95824 35.7947 7.93372 35.8136 7.90506C35.8325 7.8764 35.8454 7.84419 35.8514 7.81039C35.8914 7.71368 35.7982 7.65365 35.7016 7.66032V7.6603ZM30.5034 6.56978C30.3969 6.56136 30.2953 6.52207 30.2108 6.45672C30.1263 6.39137 30.0627 6.30278 30.0276 6.20179C29.9926 6.1008 29.9877 5.99177 30.0135 5.88804C30.0394 5.78431 30.0948 5.69036 30.1731 5.61768C30.2514 5.545 30.3492 5.49674 30.4544 5.47879C30.5596 5.46083 30.6678 5.47397 30.7657 5.5166C30.8636 5.55922 30.947 5.62948 31.0057 5.7188C31.0644 5.80811 31.0958 5.91261 31.0961 6.01952C31.0935 6.09472 31.0761 6.16866 31.0449 6.23709C31.0137 6.30552 30.9692 6.36708 30.9141 6.41823C30.859 6.46938 30.7944 6.5091 30.7239 6.53511C30.6534 6.56112 30.5784 6.57291 30.5034 6.56978ZM30.5034 5.52262C30.4065 5.5304 30.314 5.56631 30.2372 5.62593C30.1605 5.68556 30.1027 5.76632 30.0711 5.85832C30.0394 5.95032 30.0352 6.04957 30.0591 6.1439C30.0829 6.23824 30.1337 6.32357 30.2052 6.38944C30.2767 6.45531 30.3658 6.49886 30.4617 6.51477C30.5576 6.53067 30.656 6.51823 30.7449 6.47896C30.8338 6.4397 30.9093 6.37533 30.9622 6.29372C31.0152 6.21212 31.0432 6.11683 31.0428 6.01952C31.0403 5.95133 31.0242 5.88432 30.9957 5.82237C30.9671 5.76041 30.9266 5.70472 30.8765 5.65853C30.8263 5.61233 30.7675 5.57654 30.7035 5.55321C30.6394 5.52989 30.5714 5.51949 30.5034 5.52262ZM30.5034 6.43972C30.4234 6.43073 30.3477 6.39891 30.2853 6.34806C30.2229 6.2972 30.1764 6.22945 30.1514 6.15288C30.1264 6.0763 30.1239 5.99414 30.1441 5.91617C30.1644 5.83821 30.2067 5.76772 30.2659 5.71313C30.325 5.65853 30.3986 5.62212 30.4779 5.60823C30.5571 5.59435 30.6387 5.60357 30.7128 5.63481C30.787 5.66604 30.8506 5.71797 30.8961 5.7844C30.9417 5.85084 30.9672 5.92898 30.9696 6.00952C30.9688 6.06894 30.9559 6.12758 30.9318 6.18186C30.9076 6.23613 30.8726 6.28489 30.829 6.32516C30.7853 6.36543 30.7339 6.39636 30.678 6.41606C30.622 6.43576 30.5626 6.44381 30.5034 6.43972ZM30.5034 5.52262C30.4065 5.5304 30.314 5.56631 30.2372 5.62593C30.1605 5.68556 30.1027 5.76632 30.0711 5.85832C30.0394 5.95032 30.0352 6.04957 30.0591 6.1439C30.0829 6.23824 30.1337 6.32357 30.2052 6.38944C30.2767 6.45531 30.3658 6.49886 30.4617 6.51477C30.5576 6.53067 30.656 6.51823 30.7449 6.47896C30.8338 6.4397 30.9093 6.37533 30.9622 6.29372C31.0152 6.21212 31.0432 6.11683 31.0428 6.01952C31.0403 5.95133 31.0242 5.88432 30.9957 5.82237C30.9671 5.76041 30.9266 5.70472 30.8765 5.65853C30.8263 5.61233 30.7675 5.57654 30.7035 5.55321C30.6394 5.52989 30.5714 5.51949 30.5034 5.52262ZM30.5034 6.43972C30.4234 6.43073 30.3477 6.39891 30.2853 6.34806C30.2229 6.2972 30.1764 6.22945 30.1514 6.15288C30.1264 6.0763 30.1239 5.99414 30.1441 5.91617C30.1644 5.83821 30.2067 5.76772 30.2659 5.71313C30.325 5.65853 30.3986 5.62212 30.4779 5.60823C30.5571 5.59435 30.6387 5.60357 30.7128 5.63481C30.787 5.66604 30.8506 5.71797 30.8961 5.7844C30.9417 5.85084 30.9672 5.92898 30.9696 6.00952C30.9688 6.06894 30.9559 6.12758 30.9318 6.18186C30.9076 6.23613 30.8726 6.28489 30.829 6.32516C30.7853 6.36543 30.7339 6.39636 30.678 6.41606C30.622 6.43576 30.5626 6.44381 30.5034 6.43972ZM30.5034 5.52262C30.4065 5.5304 30.314 5.56631 30.2372 5.62593C30.1605 5.68556 30.1027 5.76632 30.0711 5.85832C30.0394 5.95032 30.0352 6.04957 30.0591 6.1439C30.0829 6.23824 30.1337 6.32357 30.2052 6.38944C30.2767 6.45531 30.3658 6.49886 30.4617 6.51477C30.5576 6.53067 30.656 6.51823 30.7449 6.47896C30.8338 6.4397 30.9093 6.37533 30.9622 6.29372C31.0152 6.21212 31.0432 6.11683 31.0428 6.01952C31.0403 5.95133 31.0242 5.88432 30.9957 5.82237C30.9671 5.76041 30.9266 5.70472 30.8765 5.65853C30.8263 5.61233 30.7675 5.57654 30.7035 5.55321C30.6394 5.52989 30.5714 5.51949 30.5034 5.52262ZM30.5034 6.43972C30.4234 6.43073 30.3477 6.39891 30.2853 6.34806C30.2229 6.2972 30.1764 6.22945 30.1514 6.15288C30.1264 6.0763 30.1239 5.99414 30.1441 5.91617C30.1644 5.83821 30.2067 5.76772 30.2659 5.71313C30.325 5.65853 30.3986 5.62212 30.4779 5.60823C30.5571 5.59435 30.6387 5.60357 30.7128 5.63481C30.787 5.66604 30.8506 5.71797 30.8961 5.7844C30.9417 5.85084 30.9672 5.92898 30.9696 6.00952C30.9688 6.06894 30.9559 6.12758 30.9318 6.18186C30.9076 6.23613 30.8726 6.28489 30.829 6.32516C30.7853 6.36543 30.7339 6.39636 30.678 6.41606C30.622 6.43576 30.5626 6.44381 30.5034 6.43972ZM30.5034 5.52262C30.4065 5.5304 30.314 5.56631 30.2372 5.62593C30.1605 5.68556 30.1027 5.76632 30.0711 5.85832C30.0394 5.95032 30.0352 6.04957 30.0591 6.1439C30.0829 6.23824 30.1337 6.32357 30.2052 6.38944C30.2767 6.45531 30.3658 6.49886 30.4617 6.51477C30.5576 6.53067 30.656 6.51823 30.7449 6.47896C30.8338 6.4397 30.9093 6.37533 30.9622 6.29372C31.0152 6.21212 31.0432 6.11683 31.0428 6.01952C31.0403 5.95133 31.0242 5.88432 30.9957 5.82237C30.9671 5.76041 30.9266 5.70472 30.8765 5.65853C30.8263 5.61233 30.7675 5.57654 30.7035 5.55321C30.6394 5.52989 30.5714 5.51949 30.5034 5.52262ZM30.5034 6.43972C30.4234 6.43073 30.3477 6.39891 30.2853 6.34806C30.2229 6.2972 30.1764 6.22945 30.1514 6.15288C30.1264 6.0763 30.1239 5.99414 30.1441 5.91617C30.1644 5.83821 30.2067 5.76772 30.2659 5.71313C30.325 5.65853 30.3986 5.62212 30.4779 5.60823C30.5571 5.59435 30.6387 5.60357 30.7128 5.63481C30.787 5.66604 30.8506 5.71797 30.8961 5.7844C30.9417 5.85084 30.9672 5.92898 30.9696 6.00952C30.9688 6.06894 30.9559 6.12758 30.9318 6.18186C30.9076 6.23613 30.8726 6.28489 30.829 6.32516C30.7853 6.36543 30.7339 6.39636 30.678 6.41606C30.622 6.43576 30.5626 6.44381 30.5034 6.43972ZM30.5034 5.52262C30.4065 5.5304 30.314 5.56631 30.2372 5.62593C30.1605 5.68556 30.1027 5.76632 30.0711 5.85832C30.0394 5.95032 30.0352 6.04957 30.0591 6.1439C30.0829 6.23824 30.1337 6.32357 30.2052 6.38944C30.2767 6.45531 30.3658 6.49886 30.4617 6.51477C30.5576 6.53067 30.656 6.51823 30.7449 6.47896C30.8338 6.4397 30.9093 6.37533 30.9622 6.29372C31.0152 6.21212 31.0432 6.11683 31.0428 6.01952C31.0403 5.95133 31.0242 5.88432 30.9957 5.82237C30.9671 5.76041 30.9266 5.70472 30.8765 5.65853C30.8263 5.61233 30.7675 5.57654 30.7035 5.55321C30.6394 5.52989 30.5714 5.51949 30.5034 5.52262ZM30.5034 6.43972C30.4234 6.43073 30.3477 6.39891 30.2853 6.34806C30.2229 6.2972 30.1764 6.22945 30.1514 6.15288C30.1264 6.0763 30.1239 5.99414 30.1441 5.91617C30.1644 5.83821 30.2067 5.76772 30.2659 5.71313C30.325 5.65853 30.3986 5.62212 30.4779 5.60823C30.5571 5.59435 30.6387 5.60357 30.7128 5.63481C30.787 5.66604 30.8506 5.71797 30.8961 5.7844C30.9417 5.85084 30.9672 5.92898 30.9696 6.00952C30.9688 6.06894 30.9559 6.12758 30.9318 6.18186C30.9076 6.23613 30.8726 6.28489 30.829 6.32516C30.7853 6.36543 30.7339 6.39636 30.678 6.41606C30.622 6.43576 30.5626 6.44381 30.5034 6.43972ZM5.5279 6.14625C5.5279 6.20628 5.5279 6.28632 5.55454 6.29299C5.63955 6.31699 5.72645 6.33372 5.81429 6.34301C5.77099 6.20294 5.6611 6.18961 5.53123 6.14625H5.5279H5.5279ZM6.09401 6.10956C6.09401 6.14625 6.05405 6.1796 6.06404 6.20294C6.07403 6.22629 6.11399 6.28298 6.14063 6.28298C6.23462 6.27232 6.32799 6.25673 6.42036 6.23629C6.41703 6.14291 6.32711 6.10623 6.09734 6.10956H6.09401ZM6.74004 5.98284C6.78333 6.12958 6.77667 6.15292 7.04974 6.07955C7.03642 5.98284 6.87324 5.92948 6.74337 5.98284H6.74004ZM7.57255 5.76941C7.5335 5.79809 7.49232 5.82374 7.44935 5.84611C7.37275 5.88279 7.38274 5.92281 7.42603 5.9695L7.86227 5.89947C7.84135 5.84431 7.7995 5.79969 7.74584 5.77532C7.69219 5.75096 7.6311 5.74883 7.57589 5.76941H7.57256H7.57255ZM8.52829 5.67269C8.42142 5.6148 8.29741 5.59706 8.17863 5.62267C8.17863 5.77608 8.24856 5.8361 8.38842 5.79942C8.43372 5.79073 8.47826 5.77847 8.52162 5.76273C8.58157 5.73939 8.60155 5.70938 8.53161 5.67603L8.52829 5.67269V5.67269ZM9.03779 5.37589C8.99356 5.38922 8.95349 5.4137 8.92142 5.44698C8.88935 5.48027 8.86635 5.52124 8.85463 5.56597C8.85463 5.626 8.85463 5.64268 8.9179 5.63601L9.02446 5.60933C9.13768 5.57598 9.14434 5.49594 9.04111 5.37589H9.03779ZM10.9592 4.79895C10.9396 4.79852 10.9205 4.80568 10.9059 4.81895C10.846 4.89566 10.7861 4.96903 10.7328 5.04906C10.7328 5.06574 10.7328 5.09575 10.7328 5.11576L11.2656 4.96569C11.1841 4.88018 11.0783 4.82194 10.9626 4.79895H10.9592ZM10.2466 5.01905C10.2373 5.01797 10.2278 5.01924 10.2191 5.02273C10.2104 5.02622 10.2027 5.03184 10.1966 5.03906C10.1364 5.10954 10.0797 5.183 10.0268 5.25916C10.0268 5.27584 10.0268 5.30585 10.0268 5.32586L10.543 5.17913C10.4643 5.09463 10.3623 5.03544 10.2499 5.00905L10.2466 5.01905V5.01905ZM9.55727 5.24582C9.55046 5.24279 9.54308 5.24122 9.53563 5.24122C9.52817 5.24122 9.52079 5.24279 9.51398 5.24582C9.46403 5.30919 9.41408 5.37255 9.37079 5.43591C9.3275 5.49928 9.37079 5.4726 9.37079 5.49261L9.81036 5.36922C9.74186 5.30321 9.65459 5.2601 9.5606 5.24583H9.55727V5.24582ZM11.8484 4.54549C11.8351 4.54559 11.822 4.549 11.8104 4.5554C11.7988 4.5618 11.7889 4.571 11.7818 4.58218C11.7474 4.63538 11.7195 4.69248 11.6985 4.75226C11.6942 4.78008 11.7001 4.8085 11.7151 4.8323C11.7151 4.8323 11.7618 4.8323 11.7851 4.8323L12.1181 4.73225L12.2346 4.68556C12.233 4.67227 12.233 4.65883 12.2346 4.64554C12.1114 4.60552 11.9882 4.57217 11.8517 4.54549H11.8484V4.54549ZM12.9373 4.212C12.8241 4.4121 12.8174 4.43878 12.8707 4.54549L13.3868 4.38875V4.34206L12.9373 4.212ZM14.3759 3.68175C14.2893 3.76512 14.3759 3.80514 14.4058 3.85517L14.5324 4.02525L14.7821 3.94521L14.3759 3.68175ZM15.1351 2.97808L14.9686 3.20486C15.0985 3.2849 15.225 3.35826 15.3449 3.4383C15.4648 3.51834 15.5148 3.56169 15.5947 3.62506C15.6746 3.68842 15.7046 3.7151 15.7878 3.67175C15.8497 3.65105 15.9132 3.63543 15.9776 3.62506L15.1351 2.97808ZM15.3149 3.46498C15.2384 3.41162 15.1551 3.3716 15.0785 3.32158C15.0019 3.27155 14.952 3.23153 14.8321 3.32158C15.0032 3.40891 15.1603 3.52131 15.2983 3.65507C15.2995 3.66392 15.2995 3.67289 15.2983 3.68175C15.2766 3.6772 15.2554 3.6705 15.235 3.66174C15.1049 3.57968 14.9793 3.49062 14.8587 3.39495C14.8478 3.38334 14.8347 3.37409 14.8201 3.36776C14.8055 3.36144 14.7897 3.35818 14.7738 3.35818C14.7579 3.35818 14.7422 3.36144 14.7276 3.36776C14.7129 3.37409 14.6998 3.38334 14.6889 3.39495L14.5957 3.46831L14.8021 3.62172C14.6656 3.62172 14.559 3.40162 14.4525 3.59504L14.8721 3.87517C14.8861 3.88 14.9013 3.88 14.9153 3.87517L15.5814 3.71176C15.6013 3.71176 15.618 3.68842 15.6513 3.67174C15.5281 3.61838 15.4248 3.54168 15.3183 3.46831L15.3149 3.46498V3.46498ZM15.578 2.52787C15.9362 2.74067 16.2596 3.00723 16.5371 3.31824C16.6769 3.45831 16.6769 3.46165 16.9001 3.38161C16.3716 2.88266 15.791 2.44214 15.1684 2.06765C15.1851 2.16436 15.1984 2.23106 15.2117 2.29776C15.2608 2.48439 15.2491 2.68182 15.1784 2.86136C15.1737 2.87707 15.1735 2.89376 15.1776 2.90963C15.1817 2.9255 15.19 2.93994 15.2017 2.9514C15.4671 3.10596 15.7131 3.29182 15.9343 3.505C16.0609 3.61839 16.0576 3.62172 16.2673 3.54168L15.6346 3.04478L15.9377 3.24821C16.0376 3.31825 16.1375 3.39495 16.2307 3.47499C16.265 3.50848 16.3092 3.52985 16.3567 3.53587C16.4041 3.54189 16.4523 3.53223 16.4938 3.50834C16.5228 3.4972 16.553 3.48936 16.5837 3.48499C16.1856 3.09917 15.7556 2.74775 15.2983 2.43449L15.3149 2.41115L15.578 2.52787V2.52787ZM17.283 3.00476C17.0632 2.83468 16.8468 2.67127 16.617 2.49785C16.3872 2.32444 16.1974 2.19771 15.9843 2.05431L15.0918 1.46069C14.9819 1.38732 14.8621 1.32063 14.7588 1.25059C14.7588 1.25059 14.7588 1.23058 14.7389 1.22058C14.7189 1.21057 14.7389 1.2606 14.7389 1.2706L15.0252 1.63077C15.2166 1.70913 15.4024 1.8005 15.5814 1.90424C15.8877 2.10767 16.1841 2.32444 16.4672 2.55121C16.7502 2.77798 16.9966 3.00476 17.2597 3.21819C17.343 3.28823 17.4029 3.28489 17.5594 3.21819L17.283 3.00476V3.00476ZM17.0399 3.13149C16.7302 2.86469 16.4305 2.58456 16.1075 2.33778C15.7845 2.09099 15.5181 1.95093 15.2184 1.76083C15.1518 1.71748 15.0885 1.67412 15.0186 1.63411C15.0186 1.63411 14.9953 1.65745 14.9953 1.66079C15.0319 1.76083 15.0719 1.85755 15.1118 1.95426C15.1224 1.9696 15.1376 1.98126 15.1551 1.98761C15.6314 2.1872 16.0654 2.47581 16.4338 2.83801C16.607 3.00142 16.7868 3.1715 16.9667 3.32157C17.0499 3.39828 17.1232 3.32157 17.2231 3.32157C17.1565 3.24487 17.1032 3.18818 17.0432 3.13482L17.0399 3.13148V3.13149ZM14.4325 0.947115V0.967127L14.7655 1.22058L14.9486 1.27727C14.9856 1.31178 15.0245 1.34407 15.0652 1.37398C15.5214 1.66412 15.9909 1.93759 16.4338 2.2444C16.8767 2.55121 17.2697 2.86469 17.6826 3.17484C17.7392 3.21819 17.7592 3.2182 17.9091 3.15483C17.6893 2.82801 15.1085 1.17723 14.4358 0.950451L14.4325 0.947115ZM19.1911 2.67461C19.1767 2.6647 19.1604 2.65782 19.1432 2.65438C19.1261 2.65094 19.1084 2.65101 19.0912 2.65459C18.9775 2.67491 18.866 2.70618 18.7582 2.74797C18.7361 2.75981 18.7168 2.77641 18.7019 2.7966C18.6869 2.81678 18.6766 2.84004 18.6717 2.86469C18.6717 2.96474 18.7982 3.03477 18.9081 2.99809L18.7216 2.818C18.721 2.81023 18.721 2.80243 18.7216 2.79466C18.7431 2.79979 18.7643 2.80648 18.7849 2.81467L18.8948 2.89471C18.9565 2.95286 19.0381 2.98524 19.1229 2.98524C19.2076 2.98524 19.2892 2.95286 19.351 2.89471C19.3144 2.82134 19.2577 2.74464 19.1911 2.6746V2.67461ZM19.684 2.5212C19.6577 2.50313 19.6259 2.49487 19.5941 2.49785C19.4809 2.5212 19.3676 2.55455 19.2444 2.58456L19.5075 2.86803C19.5146 2.87213 19.5226 2.87428 19.5308 2.87428C19.539 2.87428 19.547 2.87213 19.5541 2.86803L19.8671 2.78132C19.8039 2.6746 19.7473 2.60457 19.684 2.52119V2.5212ZM20.0936 2.4645C20.0712 2.43137 20.037 2.40808 19.998 2.3994C19.959 2.39072 19.9181 2.39731 19.8838 2.41781L19.724 2.48118C19.8105 2.57456 19.8905 2.6646 19.977 2.74797C20.0027 2.75836 20.0313 2.75836 20.057 2.74797C20.1336 2.74797 20.2068 2.74797 20.3067 2.72129L20.0936 2.4645H20.0936ZM20.5265 2.38446C20.4922 2.34824 20.4474 2.32363 20.3985 2.31407C20.3495 2.3045 20.2988 2.31046 20.2534 2.3311C20.2168 2.3311 20.1735 2.35111 20.1369 2.36112L20.4466 2.69461C20.4466 2.69461 20.4732 2.72129 20.4865 2.72129L20.8362 2.68794C20.843 2.67868 20.8486 2.66859 20.8528 2.65793C20.7463 2.57122 20.6464 2.48118 20.5265 2.38446ZM21.0926 2.36112C21.0735 2.32426 21.047 2.29167 21.0149 2.26535C20.9828 2.23902 20.9457 2.21949 20.9059 2.20795C20.866 2.19642 20.8242 2.1931 20.7831 2.19822C20.7419 2.20334 20.7022 2.21678 20.6664 2.23773C20.6122 2.25525 20.5564 2.26753 20.4999 2.27441L20.703 2.45116C20.7615 2.49652 20.8171 2.54553 20.8695 2.5979C20.9328 2.67127 21.0094 2.65793 21.0926 2.65126C21.1824 2.64604 21.2725 2.64604 21.3623 2.65126C21.2661 2.5606 21.176 2.46368 21.0926 2.36112V2.36112ZM21.7786 2.43449C21.692 2.33444 21.6054 2.23439 21.5122 2.13768C21.4961 2.12277 21.4772 2.11124 21.4567 2.1038C21.4361 2.09635 21.4142 2.09313 21.3923 2.09433C21.2724 2.09433 21.1559 2.13435 21.0393 2.15436L21.016 2.19104C21.1244 2.26612 21.2238 2.3534 21.3124 2.45117C21.379 2.53492 21.4694 2.59638 21.5718 2.62736C21.6741 2.65833 21.7834 2.65737 21.8852 2.62458C21.8984 2.62291 21.9119 2.62291 21.9251 2.62458V2.60457L21.7786 2.43449ZM21.9484 2.02096C21.9386 2.00955 21.9263 2.0006 21.9124 1.99481C21.8985 1.98902 21.8835 1.98656 21.8685 1.98761C21.762 2.00762 21.662 2.03763 21.5522 2.06765L22.0483 2.57789C22.0967 2.60583 22.1522 2.61884 22.2079 2.61528C22.2636 2.61172 22.317 2.59175 22.3614 2.55788L21.9484 2.02096H21.9484ZM22.8109 2.46784C22.6777 2.27775 22.5478 2.08766 22.4113 1.9009C22.4003 1.88809 22.3864 1.87809 22.3708 1.87171C22.3551 1.86533 22.3382 1.86276 22.3214 1.86422C22.2115 1.8909 22.1016 1.92758 21.9884 1.96093C22.1016 2.08432 22.2115 2.19438 22.3214 2.31443C22.3747 2.37446 22.408 2.45116 22.4579 2.51453C22.4814 2.53982 22.5135 2.55531 22.5478 2.55788C22.6278 2.55788 22.7077 2.55788 22.7876 2.53453C22.8675 2.51119 22.8342 2.50452 22.8109 2.46784V2.46784ZM23.1672 2.34778C23.0773 2.16436 22.9674 1.98428 22.8642 1.80419C22.8372 1.76202 22.8072 1.7219 22.7743 1.68413L22.4812 1.81753L22.7343 2.15102C22.807 2.24379 22.8727 2.34189 22.9308 2.44449C22.9422 2.47015 22.9618 2.49127 22.9865 2.50455C23.0113 2.51783 23.0397 2.52251 23.0673 2.51786C23.3104 2.51453 23.2671 2.54454 23.1672 2.34111V2.34778ZM23.6235 2.46117C23.5136 2.19437 23.407 1.92425 23.2905 1.66412C23.1972 1.46403 23.1839 1.4707 22.9841 1.57742L22.8509 1.64745C22.9457 1.7528 23.0336 1.8642 23.114 1.98094C23.2072 2.12767 23.2805 2.28442 23.3604 2.43782C23.3913 2.47583 23.4329 2.50375 23.4797 2.518C23.5266 2.53226 23.5766 2.53221 23.6235 2.51786C23.6284 2.50924 23.631 2.49947 23.631 2.48952C23.631 2.47956 23.6284 2.46979 23.6235 2.46117H23.6235ZM23.5635 1.23725L23.2638 1.44736C23.3238 1.5374 23.3804 1.62744 23.4436 1.71748C23.5682 1.92339 23.6571 2.14889 23.7067 2.38447C23.7533 2.54454 23.78 2.56789 23.9598 2.57456C24.0379 2.57747 24.1158 2.58526 24.1929 2.5979C23.9098 2.14769 23.8432 1.65412 23.5635 1.23725ZM23.8965 0.937114C23.8166 1.00381 23.74 1.06717 23.6601 1.1272C23.5802 1.18723 23.6101 1.19057 23.6601 1.24059C23.7665 1.37328 23.8612 1.515 23.9431 1.66413C24.043 1.85755 24.113 2.06432 24.1929 2.26441C24.2262 2.35112 24.2562 2.43783 24.2961 2.5212C24.3062 2.54026 24.3199 2.55714 24.3364 2.57088C24.353 2.58461 24.3721 2.59493 24.3927 2.60124C24.4726 2.60124 24.5592 2.60124 24.6624 2.60124C24.4672 2.0213 24.2116 1.46352 23.8998 0.937114H23.8965ZM24.2295 0.433541L23.9331 0.897095C24.3372 1.40194 24.6259 1.98932 24.779 2.61791L25.1919 2.66127C24.9626 1.88496 24.6453 1.13752 24.2462 0.433541H24.2295ZM25.9745 2.72463C25.5802 1.75149 25.0584 0.835239 24.4227 0C24.4074 0.0256527 24.394 0.0524062 24.3827 0.0800393C24.3461 0.160078 24.3128 0.240115 24.2795 0.320154C24.268 0.352521 24.268 0.387834 24.2795 0.420201C24.5359 0.883754 24.789 1.34731 25.0554 1.80085C25.2032 2.05429 25.3153 2.32701 25.3884 2.61124C25.3884 2.63792 25.4117 2.67461 25.4317 2.67794L25.7147 2.70796C25.5259 1.94858 25.1862 1.23513 24.7157 0.610292C25.2181 1.24557 25.6161 1.95707 25.8946 2.71796L25.9745 2.72463ZM26.1643 2.57122C26.0744 2.43449 25.9978 2.29442 25.9145 2.15436C25.901 2.13401 25.8811 2.11876 25.8579 2.111C25.9545 2.3111 26.0511 2.51119 26.151 2.70795C26.1726 2.73428 26.2037 2.75104 26.2376 2.75464L26.2609 2.6546C26.2251 2.63724 26.1968 2.60767 26.1809 2.57122H26.1643H26.1643ZM25.5948 11.3454C25.5761 11.3696 25.5594 11.3952 25.5449 11.4221C25.4028 11.6536 25.2909 11.9024 25.2119 12.1624C25.1472 12.3572 25.0564 12.5423 24.9422 12.7127C24.7723 12.9828 24.5725 13.2396 24.386 13.4997C24.5665 13.3548 24.7388 13.2001 24.9022 13.0362C25.0075 12.9217 25.0921 12.7897 25.1519 12.646C25.2685 12.3926 25.3651 12.1358 25.4616 11.8756C25.5149 11.7322 25.5516 11.5822 25.5948 11.4321C25.5986 11.4033 25.5986 11.3742 25.5948 11.3454ZM25.2618 11.7389C25.0542 12.21 24.7567 12.6359 24.386 12.9928C24.6273 12.7145 24.83 12.4049 24.9888 12.0724C24.8989 12.1891 24.8256 12.2858 24.749 12.3792C24.5346 12.6198 24.2881 12.8297 24.0164 13.0028C23.9365 13.0595 23.9065 13.1062 23.9232 13.1929C23.9257 13.2745 23.9133 13.3559 23.8865 13.433C23.8853 13.4553 23.8853 13.4775 23.8865 13.4997H23.9132L24.0264 13.3664H24.0497C23.9967 13.4252 23.9509 13.4901 23.9132 13.5598C23.9014 13.6315 23.9014 13.7048 23.9132 13.7765L23.9864 13.7332V13.7799L24.0164 13.7999L24.0697 13.7232C24.1629 13.6131 24.2562 13.5064 24.3461 13.3897C24.4042 13.3217 24.4473 13.2421 24.4726 13.1562C24.5356 12.9759 24.6517 12.8189 24.8056 12.706C24.8056 12.7427 24.8056 12.7661 24.8056 12.7894C25.0291 12.4752 25.1803 12.1153 25.2485 11.7356L25.2618 11.7389L25.2618 11.7389ZM25.0188 11.5188C24.7623 11.7823 24.5092 12.0457 24.2462 12.3058C24.1629 12.3859 24.053 12.4492 23.9598 12.5226C23.9386 12.5356 23.9202 12.5526 23.9057 12.5728C23.8911 12.593 23.8808 12.6158 23.8752 12.6401C23.8696 12.6643 23.8689 12.6894 23.8732 12.7139C23.8774 12.7384 23.8865 12.7618 23.8998 12.7827C23.9126 12.7637 23.9284 12.7468 23.9465 12.7327C24.2579 12.4871 24.5366 12.2024 24.7757 11.8856C24.9455 11.6822 25.1087 11.4788 25.2685 11.2654L25.0187 11.5188L25.0188 11.5188ZM24.396 12.4392C24.2555 12.5837 24.0865 12.6972 23.8998 12.7727C23.8998 12.8528 23.8998 12.9328 23.8998 13.0262C24.3469 12.7098 24.7215 12.3017 24.9988 11.829C24.7856 12.0124 24.5958 12.2391 24.3827 12.4359L24.396 12.4392V12.4392ZM25.1519 11.232C25.1358 11.2372 25.1202 11.2439 25.1053 11.252C24.9089 11.4254 24.719 11.5855 24.5126 11.7689C24.3061 11.9523 24.1329 12.0324 23.9465 12.1691C23.915 12.1912 23.8935 12.2247 23.8865 12.2625C23.8871 12.3362 23.8927 12.4097 23.9032 12.4826H23.9365L25.1753 11.2387L25.1519 11.232ZM24.4859 11.5188C24.2932 11.5565 24.1119 11.6387 23.9565 11.7589C23.9165 11.7956 23.9098 11.8556 23.8865 11.9023H23.9132L24.4993 11.5255C24.4918 11.5214 24.484 11.5181 24.476 11.5155L24.4859 11.5188ZM23.9465 11.949C23.8566 11.9924 23.8899 12.0724 23.9132 12.1491L24.436 11.7289C24.2462 11.8056 24.0897 11.869 23.9365 11.9457L23.9465 11.949ZM11.9749 8.53739C11.9758 8.6006 11.9899 8.66292 12.0163 8.72035C12.0427 8.77778 12.0807 8.82905 12.1281 8.87088C12.1495 8.87909 12.1732 8.87909 12.1947 8.87088C12.2857 8.83577 12.3728 8.79105 12.4544 8.73748L11.9749 8.53739ZM9.14101 7.72367C9.16907 7.85307 9.23795 7.96999 9.33748 8.05716C9.40076 7.99046 9.45737 7.9271 9.52064 7.86373L9.14101 7.72367ZM8.35845 7.47688C8.35317 7.57046 8.38419 7.66246 8.44503 7.73367C8.46216 7.74037 8.48118 7.74037 8.49831 7.73367C8.54109 7.72251 8.58019 7.70031 8.61174 7.6693C8.64329 7.63829 8.66618 7.59955 8.67813 7.55692L8.35845 7.47688ZM7.59919 7.24344C7.56406 7.2456 7.52936 7.25233 7.49596 7.26345C7.55778 7.34419 7.62451 7.42104 7.69576 7.49356C7.74904 7.54025 7.93886 7.4402 7.9655 7.36016L7.5992 7.24344H7.59919ZM7.14297 7.14006L6.70673 7.0967C6.69706 7.10761 6.68919 7.11999 6.68342 7.13339C6.74669 7.19008 6.80996 7.29013 6.87656 7.29013C6.97711 7.27393 7.07337 7.23764 7.15962 7.18341C7.14894 7.16895 7.14 7.15327 7.13298 7.13672L7.14297 7.14006H7.14297ZM5.87089 7.10004C5.88785 7.13074 5.90916 7.15883 5.93416 7.18341C5.98056 7.21249 6.02962 7.23705 6.08068 7.25678C6.16726 7.2968 6.24052 7.2301 6.26716 7.09337L5.87089 7.10004V7.10004ZM5.34807 7.10004C5.34807 7.14006 5.34807 7.18675 5.37138 7.20009C5.39469 7.21342 5.48127 7.28346 5.52456 7.27345C5.56785 7.26345 5.59782 7.19008 5.64777 7.12338L5.34807 7.10004ZM0.949055 11.5221C0.869132 11.5788 0.772562 11.6088 0.68598 11.6589C0.665999 11.6589 0.656008 11.7056 0.642687 11.7289C0.80253 11.6589 0.975693 11.5822 1.12555 11.5155C1.35015 11.4468 1.55857 11.3334 1.73828 11.182C1.45838 11.2528 1.18948 11.3616 0.939062 11.5055L0.949051 11.5221H0.949055ZM0.429566 11.7456C0.388033 11.7567 0.347836 11.7724 0.309685 11.7923C0.309685 11.7923 0.289703 11.8223 0.276383 11.839C0.297344 11.8423 0.318693 11.8423 0.339654 11.839L0.63936 11.7256C0.559437 11.7189 0.489506 11.7189 0.419574 11.7289L0.429566 11.7456V11.7456Z" fill="#231F20"/>
</svg>
