<svg width="17" height="17" viewBox="0 0 17 17" fill="none" xmlns="http://www.w3.org/2000/svg">
<path d="M8.10731 1.50303C10.3011 1.50303 10.5395 1.50303 11.3979 1.55072C12.2087 1.59841 12.6379 1.74148 12.924 1.83686C13.3055 1.97993 13.5917 2.17069 13.8778 2.45683C14.1639 2.74297 14.3547 3.02911 14.4978 3.41063C14.5932 3.69677 14.7362 4.12598 14.7839 4.93671C14.7839 5.74745 14.7839 5.9859 14.7839 8.17964C14.7839 10.3734 14.7839 10.6118 14.7362 11.4703C14.6885 12.281 14.5455 12.7102 14.4501 12.9963C14.307 13.3779 14.1163 13.664 13.8301 13.9501C13.544 14.2363 13.2578 14.427 12.8763 14.5701C12.5902 14.6655 12.161 14.8086 11.3502 14.8562C10.5395 14.8562 10.3011 14.8562 8.10731 14.8562C5.91357 14.8562 5.67512 14.8562 4.8167 14.8086C4.00597 14.7609 3.57675 14.6178 3.29061 14.5224C2.90909 14.3793 2.62295 14.1886 2.33681 13.9024C2.05067 13.6163 1.85991 13.3302 1.71684 12.9486C1.62146 12.6625 1.47839 12.2333 1.4307 11.4226C1.4307 10.6118 1.4307 10.3734 1.4307 8.17964C1.4307 5.9859 1.4307 5.74744 1.47839 4.88902C1.52608 4.07829 1.66915 3.64908 1.76453 3.36294C1.9076 2.98142 2.09836 2.69528 2.3845 2.40914C2.67064 2.123 2.95678 1.93224 3.3383 1.78917C3.62444 1.69379 4.05366 1.55072 4.86439 1.50303C5.67512 1.50303 5.91357 1.50303 8.10731 1.50303ZM8.10731 0.0723267C5.91357 0.0723267 5.62743 0.0723268 4.76901 0.120017C3.91059 0.167707 3.3383 0.310777 2.81371 0.501537C2.28912 0.692297 1.81222 0.978438 1.38301 1.45534C0.953801 1.93224 0.667661 2.36145 0.42921 2.88604C0.23845 3.41063 0.0953803 3.98291 0.0476902 4.84133C1.81213e-07 5.69975 0 5.9859 0 8.17964C0 10.3734 1.81213e-07 10.6595 0.0476902 11.5179C0.0953803 12.3764 0.23845 12.9486 0.42921 13.4732C0.619971 13.9978 0.906111 14.4747 1.38301 14.9039C1.81222 15.3331 2.28912 15.6193 2.81371 15.8577C3.3383 16.0485 3.91059 16.1916 4.76901 16.2393C5.62743 16.2869 5.91357 16.2869 8.10731 16.2869C10.3011 16.2869 10.5872 16.2869 11.4456 16.2393C12.304 16.1916 12.8763 16.0485 13.4009 15.8577C13.9255 15.667 14.4024 15.3808 14.8316 14.9039C15.2608 14.4747 15.547 13.9978 15.7854 13.4732C15.9762 12.9486 16.1192 12.3764 16.1669 11.5179C16.2146 10.6595 16.2146 10.3734 16.2146 8.17964C16.2146 5.9859 16.2146 5.69975 16.1669 4.84133C16.1192 3.98291 15.9762 3.41063 15.7854 2.88604C15.5947 2.36145 15.3085 1.88455 14.8316 1.45534C14.3547 1.02613 13.9255 0.739987 13.4009 0.501537C12.8763 0.310777 12.304 0.167707 11.4456 0.120017C10.5872 0.0723268 10.3011 0.0723267 8.10731 0.0723267Z" fill="black"/>
<path d="M8.10741 3.88751C5.72291 3.88751 3.81531 5.79511 3.81531 8.17962C3.81531 10.5641 5.72291 12.4717 8.10741 12.4717C10.4919 12.4717 12.3995 10.5641 12.3995 8.17962C12.3995 5.79511 10.4919 3.88751 8.10741 3.88751ZM8.10741 11.041C6.53364 11.041 5.24601 9.75339 5.24601 8.17962C5.24601 6.60585 6.53364 5.31821 8.10741 5.31821C9.68119 5.31821 10.9688 6.60585 10.9688 8.17962C10.9688 9.75339 9.68119 11.041 8.10741 11.041Z" fill="black"/>
<path d="M12.3994 4.84132C12.9262 4.84132 13.3532 4.41429 13.3532 3.88752C13.3532 3.36075 12.9262 2.93372 12.3994 2.93372C11.8726 2.93372 11.4456 3.36075 11.4456 3.88752C11.4456 4.41429 11.8726 4.84132 12.3994 4.84132Z" fill="black"/>
</svg>
