<svg width="18" height="15" viewBox="0 0 18 15" fill="none" xmlns="http://www.w3.org/2000/svg">
<path d="M17.367 9.41703L14.5096 5.62967L15.1097 9.94252L15.5002 8.82052L16.4527 10.094C16.7264 10.5134 16.8298 11.0205 16.7421 11.5127C16.6543 12.005 16.382 12.4458 15.98 12.7463C15.5781 13.0467 15.0764 13.1844 14.5763 13.1314C14.0762 13.0785 13.615 12.839 13.2857 12.4611L9.69958 7.72692L8.98999 6.78008L5.86586 2.66132C5.98631 2.35449 6.02245 2.02132 5.97056 1.69601C5.91867 1.37071 5.78062 1.06499 5.57058 0.810253C4.97529 0.0149079 3.9609 -0.236005 3.3275 0.242149C2.6941 0.720303 2.65124 1.75236 3.2513 2.54297C3.43983 2.81425 3.69748 3.03085 3.9979 3.1706C4.29831 3.31035 4.63069 3.36823 4.961 3.33832L8.29468 7.71271L9.0138 8.65955L12.3951 13.1239C12.6415 13.4487 12.9499 13.7222 13.3026 13.9285C13.6553 14.1349 14.0454 14.2702 14.4507 14.3267C14.856 14.3832 15.2686 14.3598 15.6648 14.2578C16.061 14.1558 16.4331 13.9772 16.7598 13.7322C17.0866 13.4873 17.3617 13.1808 17.5693 12.8301C17.7769 12.4795 17.913 12.0917 17.9698 11.6888C18.0266 11.2859 18.0031 10.8758 17.9005 10.482C17.7979 10.0881 17.6182 9.7182 17.3718 9.39336L17.367 9.41703ZM5.02767 2.48143C4.74669 2.69446 4.22759 2.50983 3.89423 2.06955C3.56086 1.62927 3.52276 1.08484 3.81327 0.871798C4.10377 0.658759 4.61811 0.843392 4.95148 1.28367C5.28485 1.72395 5.31818 2.28732 5.02767 2.48143Z" fill="black"/>
<path d="M14.6668 0.265803C14.0286 -0.207617 13.019 0.0385619 12.4189 0.833907C12.2083 1.08839 12.0703 1.39439 12.0192 1.71998C11.9681 2.04557 12.0058 2.37882 12.1284 2.68498L8.99952 6.80373L8.28992 7.75057L4.70383 12.4848C4.37451 12.8626 3.91325 13.1022 3.41317 13.1551C2.91308 13.208 2.41142 13.0704 2.00946 12.7699C1.60749 12.4695 1.33516 12.0286 1.24744 11.5364C1.15972 11.0441 1.26314 10.5371 1.53683 10.1177L2.48931 8.84417L2.87983 9.96618L3.48466 5.65332L0.627217 9.44068C0.380806 9.76615 0.201294 10.1367 0.0989315 10.5311C-0.00343131 10.9255 -0.0266457 11.3361 0.0306231 11.7395C0.0878919 12.1428 0.224523 12.531 0.432705 12.8818C0.640887 13.2327 0.916546 13.5394 1.24395 13.7843C1.57135 14.0293 1.94407 14.2077 2.34085 14.3095C2.73762 14.4112 3.15068 14.4343 3.55642 14.3774C4.37586 14.2624 5.1158 13.8285 5.61345 13.1712L8.99475 8.68321L9.69482 7.73637L13.0285 3.3525C13.3588 3.38242 13.6912 3.32454 13.9916 3.18479C14.292 3.04503 14.5497 2.82843 14.7382 2.55716C15.3383 1.77601 15.3097 0.743958 14.6668 0.265803ZM14.1048 2.0932C13.781 2.53349 13.2571 2.71812 12.9714 2.50508C12.6856 2.29204 12.7237 1.73814 13.0476 1.30733C13.3714 0.876515 13.9048 0.682413 14.1953 0.895452C14.4858 1.10849 14.4382 1.66239 14.1048 2.0932Z" fill="black"/>
</svg>
