<svg width="16" height="14" viewBox="0 0 16 14" fill="none" xmlns="http://www.w3.org/2000/svg">
<path d="M1.07808 5.75501C6.00164 3.64098 12.3727 1.06358 13.2525 0.706777C15.5593 -0.226833 16.2672 -0.0480857 15.9143 2.01988C15.6607 3.50623 14.9296 8.42659 14.3463 11.4893C14.0005 13.3057 13.2243 13.5209 12.0043 12.7351C11.4176 12.357 8.45568 10.4451 7.81259 9.99612C7.22584 9.58707 6.41652 9.09483 7.43152 8.12547C7.79286 7.78035 10.1603 5.57351 12.005 3.85616C12.2466 3.63067 11.943 3.26011 11.6641 3.44092C9.17766 5.05033 5.73046 7.28398 5.29164 7.57479C4.62882 8.01409 3.99207 8.21553 2.84957 7.89516C1.98601 7.65316 1.14288 7.36442 0.814641 7.25442C-0.449708 6.83093 -0.149645 6.28231 1.07808 5.75501Z" fill="black"/>
</svg>
