<svg width="20" height="20" viewBox="0 0 20 20" fill="none" xmlns="http://www.w3.org/2000/svg">
<path d="M10 0C7.93753 0 4.72369 0.18975 2.76569 1.97817C1.38153 3.35637 0.833359 5.28962 0.833359 7.79167C0.833359 7.99883 0.832442 8.22983 0.834276 8.47917C0.832442 8.72804 0.833359 8.95904 0.833359 9.16621C0.833359 11.6682 1.38153 13.6015 2.76569 14.9797C3.51094 15.6603 4.44044 16.1081 5.41669 16.4033V18.5052C5.41669 19.2367 5.89748 19.25 5.98548 19.25H5.98961C6.21603 19.2491 6.41173 19.1382 6.6079 18.964C6.68169 18.8985 7.53373 17.9488 8.46048 16.9102C9.01232 16.9455 9.53665 16.9583 9.99957 16.9583C12.0621 16.9583 15.2754 16.7681 17.2339 14.9797C18.6176 13.602 19.1662 11.6682 19.1662 9.16621C19.1662 8.95904 19.1672 8.72804 19.1653 8.47871C19.1672 8.22937 19.1662 7.99883 19.1662 7.79121C19.1662 5.28917 18.6181 3.35592 17.2339 1.97771C15.2759 0.18975 12.0625 0 10 0ZM17.7917 9.00671V9.16621C17.7917 11.4148 17.3127 12.947 16.2856 13.9842C14.5064 15.5833 11.117 15.5833 9.99957 15.5833C9.65948 15.5833 9.10765 15.5829 8.45636 15.5375C8.27532 15.741 6.33336 17.913 6.33336 17.913V15.2258C5.36903 14.9944 4.41615 14.6149 3.71444 13.9847C2.68732 12.947 2.20836 11.4148 2.20836 9.16621V9.00671C2.20836 8.84583 2.2079 8.67212 2.20928 8.46908C2.2079 8.28575 2.2079 8.1125 2.20836 7.95117V7.79167C2.20836 5.54308 2.68732 4.01087 3.71444 2.97367C5.49323 1.37454 8.88307 1.37454 10 1.37454C11.117 1.37454 14.5064 1.37454 16.2852 2.97367C17.3127 4.01087 17.7912 5.54308 17.7912 7.79167V7.95117C17.7912 8.11204 17.7917 8.28575 17.7903 8.48879C17.7917 8.67258 17.7917 8.84583 17.7917 9.00671Z" fill="black"/>
</svg>
